<mxfile host="65bd71144e">
    <diagram id="erYLSBdxRo4pxwB9NYbb" name="Page-1">
        <mxGraphModel dx="1806" dy="1121" grid="0" gridSize="10" guides="1" tooltips="1" connect="1" arrows="1" fold="1" page="0" pageScale="1" pageWidth="850" pageHeight="1100" math="0" shadow="0">
            <root>
                <mxCell id="0"/>
                <mxCell id="1" parent="0"/>
                <mxCell id="17" style="edgeStyle=none;html=1;entryX=0.014;entryY=0.724;entryDx=0;entryDy=0;entryPerimeter=0;" edge="1" parent="1" source="2" target="12">
                    <mxGeometry relative="1" as="geometry"/>
                </mxCell>
                <mxCell id="18" style="edgeStyle=none;html=1;entryX=0;entryY=0.5;entryDx=0;entryDy=0;" edge="1" parent="1" source="2" target="13">
                    <mxGeometry relative="1" as="geometry"/>
                </mxCell>
                <mxCell id="19" style="edgeStyle=none;html=1;entryX=0;entryY=0.5;entryDx=0;entryDy=0;" edge="1" parent="1" source="2" target="14">
                    <mxGeometry relative="1" as="geometry"/>
                </mxCell>
                <mxCell id="20" style="edgeStyle=none;html=1;entryX=0;entryY=0.5;entryDx=0;entryDy=0;" edge="1" parent="1" source="2" target="15">
                    <mxGeometry relative="1" as="geometry"/>
                </mxCell>
                <mxCell id="23" style="edgeStyle=none;html=1;entryX=0;entryY=0.5;entryDx=0;entryDy=0;" edge="1" parent="1" source="2" target="22">
                    <mxGeometry relative="1" as="geometry"/>
                </mxCell>
                <mxCell id="2" value="Cliente" style="shape=umlActor;verticalLabelPosition=bottom;verticalAlign=top;html=1;outlineConnect=0;" vertex="1" parent="1">
                    <mxGeometry x="-27" y="323" width="33" height="60" as="geometry"/>
                </mxCell>
                <mxCell id="12" value="Iniciar session" style="ellipse;whiteSpace=wrap;html=1;" vertex="1" parent="1">
                    <mxGeometry x="152" y="136" width="140" height="70" as="geometry"/>
                </mxCell>
                <mxCell id="13" value="Solicitar prestamo" style="ellipse;whiteSpace=wrap;html=1;" vertex="1" parent="1">
                    <mxGeometry x="147" y="242" width="149" height="70" as="geometry"/>
                </mxCell>
                <mxCell id="14" value="Ver&amp;nbsp; prestamo actual" style="ellipse;whiteSpace=wrap;html=1;" vertex="1" parent="1">
                    <mxGeometry x="155" y="341" width="140" height="70" as="geometry"/>
                </mxCell>
                <mxCell id="15" value="Recibir notificaciones" style="ellipse;whiteSpace=wrap;html=1;" vertex="1" parent="1">
                    <mxGeometry x="155" y="440" width="140" height="70" as="geometry"/>
                </mxCell>
                <mxCell id="16" value="Incluye" style="endArrow=block;endSize=16;endFill=0;html=1;dashed=1;exitX=1;exitY=0.5;exitDx=0;exitDy=0;entryX=-0.007;entryY=0.675;entryDx=0;entryDy=0;entryPerimeter=0;" edge="1" parent="1" source="12">
                    <mxGeometry width="160" relative="1" as="geometry">
                        <mxPoint x="237" y="122" as="sourcePoint"/>
                        <mxPoint x="391.15999999999985" y="130.9999999999999" as="targetPoint"/>
                    </mxGeometry>
                </mxCell>
                <mxCell id="22" value="Ver cuota de prestamo" style="ellipse;whiteSpace=wrap;html=1;" vertex="1" parent="1">
                    <mxGeometry x="159" y="534" width="140" height="70" as="geometry"/>
                </mxCell>
                <mxCell id="25" value="Incluye" style="endArrow=block;endSize=16;endFill=0;html=1;dashed=1;exitX=1;exitY=0.5;exitDx=0;exitDy=0;entryX=0;entryY=0.5;entryDx=0;entryDy=0;" edge="1" parent="1" source="13">
                    <mxGeometry width="160" relative="1" as="geometry">
                        <mxPoint x="295" y="287" as="sourcePoint"/>
                        <mxPoint x="412.0000000000068" y="269" as="targetPoint"/>
                    </mxGeometry>
                </mxCell>
                <mxCell id="26" value="Informacion de prestamo &amp;amp; cuotas" style="ellipse;whiteSpace=wrap;html=1;" vertex="1" parent="1">
                    <mxGeometry x="423" y="363" width="140" height="70" as="geometry"/>
                </mxCell>
                <mxCell id="28" value="Incluye" style="endArrow=block;endSize=16;endFill=0;html=1;dashed=1;entryX=0;entryY=0.5;entryDx=0;entryDy=0;" edge="1" parent="1" target="26">
                    <mxGeometry width="160" relative="1" as="geometry">
                        <mxPoint x="297" y="382" as="sourcePoint"/>
                        <mxPoint x="402.0000000000068" y="386" as="targetPoint"/>
                    </mxGeometry>
                </mxCell>
                <mxCell id="29" value="Registrase" style="ellipse;whiteSpace=wrap;html=1;" vertex="1" parent="1">
                    <mxGeometry x="392" y="92" width="140" height="70" as="geometry"/>
                </mxCell>
                <mxCell id="30" value="Cargar requisitos de prestamo" style="ellipse;whiteSpace=wrap;html=1;" vertex="1" parent="1">
                    <mxGeometry x="413" y="232" width="149" height="70" as="geometry"/>
                </mxCell>
            </root>
        </mxGraphModel>
    </diagram>
</mxfile>